<svg xmlns="http://www.w3.org/2000/svg" xmlns:xlink="http://www.w3.org/1999/xlink" width="500" zoomAndPan="magnify" viewBox="0 0 375 374.999991" height="500" preserveAspectRatio="xMidYMid meet" version="1.0"><defs><g/></defs><g fill="#00e5ff" fill-opacity="1"><g transform="translate(60.406827, 341.737705)"><g><path d="M 50.464844 -25.230469 L 53.265625 -25.230469 C 56.539062 -25.230469 62.144531 -25.230469 64.480469 -28.503906 C 65.882812 -29.902344 67.285156 -31.773438 66.816406 -33.640625 C 67.285156 -41.585938 56.539062 -42.050781 50.929688 -42.050781 L 49.527344 -42.050781 C 44.390625 -42.050781 39.25 -42.519531 34.109375 -42.988281 L 34.109375 -95.320312 C 34.109375 -150.921875 30.839844 -190.640625 32.242188 -242.035156 C 32.707031 -263.996094 34.109375 -287.359375 34.109375 -309.320312 L 34.109375 -320.066406 C 39.25 -320.535156 44.390625 -321.003906 49.527344 -321.003906 L 50.929688 -321.003906 C 56.539062 -321.003906 67.285156 -321.46875 66.816406 -329.414062 C 67.285156 -331.28125 65.882812 -333.152344 64.480469 -334.550781 C 62.144531 -337.824219 56.539062 -337.824219 53.265625 -337.824219 L 50.464844 -337.824219 C 44.390625 -337.824219 39.25 -337.824219 33.640625 -337.355469 L 29.902344 -337.355469 L 28.035156 -337.824219 L 24.765625 -337.824219 C 20.558594 -337.824219 14.484375 -335.488281 14.953125 -331.28125 C 14.953125 -322.402344 14.015625 -318.664062 14.015625 -283.621094 L 14.015625 -56.539062 C 14.015625 -49.527344 14.484375 -42.988281 14.953125 -36.445312 C 14.953125 -34.578125 15.417969 -29.902344 18.222656 -27.566406 C 19.625 -26.632812 21.492188 -25.699219 24.296875 -25.699219 L 25.699219 -25.699219 C 30.839844 -26.167969 26.632812 -25.699219 33.640625 -25.699219 C 39.25 -25.230469 44.390625 -25.230469 50.464844 -25.230469 Z M 50.464844 -25.230469 "/></g></g></g><g fill="#00e5ff" fill-opacity="1"><g transform="translate(141.24127, 341.737705)"><g/></g></g><g fill="#00e5ff" fill-opacity="1"><g transform="translate(206.656496, 341.737705)"><g><path d="M 21.027344 28.035156 C 41.585938 28.035156 53.265625 12.148438 59.808594 -21.960938 C 68.21875 -64.011719 71.488281 -123.820312 69.621094 -180.828125 L 74.761719 -180.359375 C 79.898438 -179.425781 89.710938 -178.957031 91.582031 -182.226562 C 94.851562 -187.367188 94.386719 -190.171875 90.179688 -195.3125 C 85.972656 -200.449219 78.964844 -199.515625 68.6875 -199.050781 C 66.351562 -236.429688 61.675781 -271.007812 54.667969 -297.640625 C 51.398438 -310.722656 47.191406 -320.535156 40.652344 -328.476562 C 37.847656 -331.75 34.109375 -334.550781 30.371094 -336.890625 C 21.960938 -341.09375 14.015625 -335.953125 14.015625 -329.414062 L 14.015625 -326.609375 C 14.015625 -321.46875 16.820312 -321.003906 21.492188 -318.664062 C 24.296875 -317.265625 26.632812 -313.992188 27.566406 -311.191406 C 36.445312 -286.894531 41.585938 -267.269531 44.855469 -249.046875 C 54.203125 -189.238281 51.398438 -73.359375 36.914062 -15.886719 L 35.511719 -12.617188 C 32.707031 -2.335938 30.371094 5.605469 23.828125 8.410156 C 18.691406 10.28125 14.484375 13.082031 14.484375 18.222656 L 14.484375 19.625 C 14.484375 25.699219 19.625 28.035156 21.027344 28.035156 Z M 21.027344 28.035156 "/></g></g></g></svg>