<svg version="1.1" id="Layer_1" xmlns="http://www.w3.org/2000/svg" xmlns:xlink="http://www.w3.org/1999/xlink" x="0px" y="0px"
	 width="100%" viewBox="0 0 500 500" enable-background="new 0 0 500 500" xml:space="preserve">
<path fill="#FFFFFF" opacity="1.000000" stroke="none"
	d="
M282.000000,501.000000
	C188.000015,501.000000 94.500046,501.000000 1.000050,501.000000
	C1.000033,334.333405 1.000033,167.666794 1.000017,1.000140
	C167.666565,1.000093 334.333130,1.000093 500.999756,1.000046
	C500.999847,167.666519 500.999847,334.333038 500.999939,500.999786
	C428.166656,501.000000 355.333344,501.000000 282.000000,501.000000
M388.776825,317.171844
	C387.006927,316.724854 385.238251,315.893921 383.466980,315.888428
	C356.805450,315.805328 330.143524,315.830841 303.481720,315.830841
	C301.710907,315.830841 299.940125,315.830841 297.764648,315.830841
	C297.764648,253.936951 297.764648,192.684433 297.764648,131.243378
	C281.780640,131.243378 266.208496,131.243378 249.946777,131.243378
	C249.946777,143.931442 249.946777,156.379517 249.016434,168.835312
	C238.101791,168.835312 227.187134,168.835312 215.892654,168.835312
	C215.892654,189.329971 215.892654,209.095139 215.892654,229.464752
	C154.309433,229.464752 93.118271,229.464752 31.713600,229.464752
	C31.713600,245.624756 31.713600,261.172363 31.713600,277.199768
	C93.279816,277.199768 154.499084,277.199768 216.149872,277.199768
	C216.149872,297.590271 216.149872,317.503174 216.149872,337.844421
	C227.702621,337.844421 238.826126,337.844421 250.139679,338.787415
	C250.139679,344.063507 250.139679,349.339600 250.139679,355.047821
	C296.472565,355.047821 342.228210,355.047821 388.076721,355.975006
	C388.076721,384.021057 388.076721,412.067108 388.076721,440.163361
	C396.173859,440.163361 403.575104,440.163361 410.881775,440.163361
	C410.881775,424.652710 410.881775,409.456543 410.881775,393.897888
	C411.535004,394.333374 412.089203,394.601959 412.518707,395.003815
	C430.873932,412.177094 456.125092,405.917816 464.212036,382.092926
	C468.778198,368.640594 468.846466,354.948395 465.243774,341.304962
	C462.133728,329.527283 455.742401,320.177063 443.192993,317.245422
	C430.459412,314.270752 419.491791,317.601898 411.429413,328.499908
	C411.299347,328.675751 410.820038,328.593323 410.325165,328.652924
	C409.815979,326.944061 409.125061,325.245697 408.820892,323.480682
	C408.096588,319.277771 406.192261,317.237732 401.498322,317.834351
	C397.401428,318.355103 393.189484,317.970612 388.776825,317.171844
z"/>
<path fill="#02E5FF" opacity="1.000000" stroke="none"
	d="
M249.949631,337.844421
	C238.826126,337.844421 227.702621,337.844421 216.149872,337.844421
	C216.149872,317.503174 216.149872,297.590271 216.149872,277.199768
	C154.499084,277.199768 93.279816,277.199768 31.713600,277.199768
	C31.713600,261.172363 31.713600,245.624756 31.713600,229.464752
	C93.118271,229.464752 154.309433,229.464752 215.892654,229.464752
	C215.892654,209.095139 215.892654,189.329971 215.892654,168.835312
	C227.187134,168.835312 238.101791,168.835312 249.568573,169.305878
	C250.134003,224.806900 250.148376,279.837341 250.151733,334.867767
	C250.151794,335.859985 250.019928,336.852203 249.949631,337.844421
z"/>
<path fill="#414141" opacity="1.000000" stroke="none"
	d="
M250.044647,338.315918
	C250.019928,336.852203 250.151794,335.859985 250.151733,334.867767
	C250.148376,279.837341 250.134003,224.806900 250.033752,169.302032
	C249.946777,156.379517 249.946777,143.931442 249.946777,131.243378
	C266.208496,131.243378 281.780640,131.243378 297.764648,131.243378
	C297.764648,192.684433 297.764648,253.936951 297.764648,315.830841
	C299.940125,315.830841 301.710907,315.830841 303.481720,315.830841
	C330.143524,315.830841 356.805450,315.805328 383.466980,315.888428
	C385.238251,315.893921 387.006927,316.724854 388.600189,317.869995
	C388.276978,330.728058 388.130402,342.887939 387.983826,355.047821
	C342.228210,355.047821 296.472565,355.047821 250.139679,355.047821
	C250.139679,349.339600 250.139679,344.063507 250.044647,338.315918
z"/>
<path fill="#424242" opacity="1.000000" stroke="none"
	d="
M388.030273,355.511414
	C388.130402,342.887939 388.276978,330.728058 388.725952,318.277130
	C393.189484,317.970612 397.401428,318.355103 401.498322,317.834351
	C406.192261,317.237732 408.096588,319.277771 408.820892,323.480682
	C409.125061,325.245697 409.815979,326.944061 410.325165,328.652924
	C410.820038,328.593323 411.299347,328.675751 411.429413,328.499908
	C419.491791,317.601898 430.459412,314.270752 443.192993,317.245422
	C455.742401,320.177063 462.133728,329.527283 465.243774,341.304962
	C468.846466,354.948395 468.778198,368.640594 464.212036,382.092926
	C456.125092,405.917816 430.873932,412.177094 412.518707,395.003815
	C412.089203,394.601959 411.535004,394.333374 410.881775,393.897888
	C410.881775,409.456543 410.881775,424.652710 410.881775,440.163361
	C403.575104,440.163361 396.173859,440.163361 388.076721,440.163361
	C388.076721,412.067108 388.076721,384.021057 388.030273,355.511414
M416.444397,380.996033
	C424.563721,388.226624 436.162354,387.391449 440.246124,378.557678
	C445.804932,366.533264 445.675537,353.968750 440.333557,341.808319
	C437.917877,336.309387 432.777557,334.714569 427.000885,334.947845
	C421.255066,335.179871 416.060486,337.049072 414.178589,342.723083
	C409.974762,355.397644 409.496063,368.137024 416.444397,380.996033
z"/>
<path fill="#FCFCFC" opacity="1.000000" stroke="none"
	d="
M416.210449,380.707245
	C409.496063,368.137024 409.974762,355.397644 414.178589,342.723083
	C416.060486,337.049072 421.255066,335.179871 427.000885,334.947845
	C432.777557,334.714569 437.917877,336.309387 440.333557,341.808319
	C445.675537,353.968750 445.804932,366.533264 440.246124,378.557678
	C436.162354,387.391449 424.563721,388.226624 416.210449,380.707245
z"/>
</svg>
