<svg width="21" height="20" viewBox="0 0 21 20" fill="none" xmlns="http://www.w3.org/2000/svg">
<g id="Arrow - Right">
<path id="Union" fill-rule="evenodd" clip-rule="evenodd" d="M10.6362 4.46967C10.9291 4.17678 11.404 4.17678 11.6969 4.46967L16.6969 9.46967C16.8375 9.61032 16.9165 9.80109 16.9165 10C16.9165 10.1989 16.8375 10.3897 16.6969 10.5303L11.6969 15.5303C11.404 15.8232 10.9291 15.8232 10.6362 15.5303C10.3433 15.2374 10.3433 14.7626 10.6362 14.4697L14.3559 10.75H4.49988C4.08566 10.75 3.74988 10.4142 3.74988 10C3.74988 9.58579 4.08566 9.25 4.49988 9.25H14.3559L10.6362 5.53033C10.3433 5.23744 10.3433 4.76256 10.6362 4.46967Z" fill="white"/>
</g>
</svg>
