<svg xmlns="http://www.w3.org/2000/svg" xmlns:xlink="http://www.w3.org/1999/xlink" width="500" zoomAndPan="magnify" viewBox="0 0 375 374.999991" height="500" preserveAspectRatio="xMidYMid meet" version="1.0"><defs><g/></defs><g fill="#00e5ff" fill-opacity="1"><g transform="translate(63.032468, 339.347773)"><g><path d="M 49.421875 -24.710938 L 52.167969 -24.710938 C 55.371094 -24.710938 60.859375 -24.710938 63.148438 -27.914062 C 64.519531 -29.285156 65.894531 -31.117188 65.4375 -32.945312 C 65.894531 -40.726562 55.371094 -41.183594 49.878906 -41.183594 L 48.503906 -41.183594 C 43.472656 -41.183594 38.4375 -41.640625 33.40625 -42.097656 L 33.40625 -93.351562 C 33.40625 -147.804688 30.203125 -186.699219 31.574219 -237.035156 C 32.03125 -258.542969 33.40625 -281.421875 33.40625 -302.929688 L 33.40625 -313.457031 C 38.4375 -313.914062 43.472656 -314.371094 48.503906 -314.371094 L 49.878906 -314.371094 C 55.371094 -314.371094 65.894531 -314.828125 65.4375 -322.605469 C 65.894531 -324.4375 64.519531 -326.269531 63.148438 -327.640625 C 60.859375 -330.84375 55.371094 -330.84375 52.167969 -330.84375 L 49.421875 -330.84375 C 43.472656 -330.84375 38.4375 -330.84375 32.945312 -330.386719 L 29.285156 -330.386719 L 27.457031 -330.84375 L 24.253906 -330.84375 C 20.132812 -330.84375 14.1875 -328.554688 14.644531 -324.4375 C 14.644531 -315.742188 13.726562 -312.082031 13.726562 -277.761719 L 13.726562 -55.371094 C 13.726562 -48.503906 14.1875 -42.097656 14.644531 -35.691406 C 14.644531 -33.863281 15.101562 -29.285156 17.847656 -27 C 19.21875 -26.082031 21.050781 -25.167969 23.796875 -25.167969 L 25.167969 -25.167969 C 30.203125 -25.625 26.082031 -25.167969 32.945312 -25.167969 C 38.4375 -24.710938 43.472656 -24.710938 49.421875 -24.710938 Z M 49.421875 -24.710938 "/></g></g></g><g fill="#00e5ff" fill-opacity="1"><g transform="translate(142.19694, 339.347773)"><g/></g></g><g fill="#00e5ff" fill-opacity="1"><g transform="translate(206.260742, 339.347773)"><g><path d="M 20.59375 27.457031 C 40.726562 27.457031 52.167969 11.898438 58.574219 -21.507812 C 66.808594 -62.691406 70.011719 -121.265625 68.183594 -177.089844 L 73.214844 -176.632812 C 78.25 -175.71875 87.859375 -175.261719 89.6875 -178.464844 C 92.894531 -183.496094 92.433594 -186.242188 88.316406 -191.277344 C 84.199219 -196.308594 77.335938 -195.394531 67.265625 -194.9375 C 64.980469 -231.546875 60.402344 -265.40625 53.539062 -291.492188 C 50.335938 -304.304688 46.21875 -313.914062 39.8125 -321.691406 C 37.066406 -324.894531 33.40625 -327.640625 29.742188 -329.929688 C 21.507812 -334.046875 13.726562 -329.015625 13.726562 -322.605469 L 13.726562 -319.863281 C 13.726562 -314.828125 16.472656 -314.371094 21.050781 -312.082031 C 23.796875 -310.710938 26.082031 -307.507812 27 -304.761719 C 35.691406 -280.964844 40.726562 -261.746094 43.929688 -243.898438 C 53.082031 -185.328125 50.335938 -71.84375 36.148438 -15.558594 L 34.777344 -12.355469 C 32.03125 -2.289062 29.742188 5.492188 23.335938 8.238281 C 18.304688 10.066406 14.1875 12.8125 14.1875 17.847656 L 14.1875 19.21875 C 14.1875 25.167969 19.21875 27.457031 20.59375 27.457031 Z M 20.59375 27.457031 "/></g></g></g></svg>
