<svg xmlns="http://www.w3.org/2000/svg" xmlns:xlink="http://www.w3.org/1999/xlink" width="500" zoomAndPan="magnify" viewBox="0 0 375 374.999991" height="500" preserveAspectRatio="xMidYMid meet" version="1.0"><defs><g/><clipPath id="b09273ebb1"><path d="M 205.710938 126.640625 L 274.480469 126.640625 L 274.480469 195.410156 L 205.710938 195.410156 Z M 205.710938 126.640625 " clip-rule="nonzero"/></clipPath><clipPath id="c9c76b3a2d"><path d="M 240.09375 126.640625 C 221.105469 126.640625 205.710938 142.035156 205.710938 161.023438 C 205.710938 180.015625 221.105469 195.410156 240.09375 195.410156 C 259.085938 195.410156 274.480469 180.015625 274.480469 161.023438 C 274.480469 142.035156 259.085938 126.640625 240.09375 126.640625 Z M 240.09375 126.640625 " clip-rule="nonzero"/></clipPath></defs><g fill="#00e5ff" fill-opacity="1"><g transform="translate(21.550548, 119.548521)"><g><path d="M 0 85.640625 L 0 50.140625 L 137.84375 50.140625 L 137.84375 4.6875 L 167.375 4.6875 L 167.375 131.09375 L 137.84375 131.09375 L 137.84375 85.640625 Z M 0 85.640625 "/></g></g></g><g clip-path="url(#b09273ebb1)"><g clip-path="url(#c9c76b3a2d)"><path fill="#00e5ff" d="M 205.710938 126.640625 L 274.480469 126.640625 L 274.480469 195.410156 L 205.710938 195.410156 Z M 205.710938 126.640625 " fill-opacity="1" fill-rule="nonzero"/></g></g><g fill="#ffffff" fill-opacity="1"><g transform="translate(162.940571, 275.432797)"><g><path d="M 56.5625 -93.078125 L 68 -93.078125 C 79.21875 -93.078125 87.5 -94.945312 92.84375 -98.6875 C 98.1875 -102.425781 100.859375 -108.300781 100.859375 -116.3125 C 100.859375 -124.25 98.128906 -129.894531 92.671875 -133.25 C 87.210938 -136.613281 78.757812 -138.296875 67.3125 -138.296875 L 56.5625 -138.296875 Z M 56.5625 -64.234375 L 56.5625 0 L 21.0625 0 L 21.0625 -167.375 L 69.84375 -167.375 C 92.582031 -167.375 109.410156 -163.234375 120.328125 -154.953125 C 131.242188 -146.671875 136.703125 -134.097656 136.703125 -117.234375 C 136.703125 -107.390625 133.988281 -98.628906 128.5625 -90.953125 C 123.144531 -83.285156 115.476562 -77.273438 105.5625 -72.921875 C 130.75 -35.296875 147.15625 -10.988281 154.78125 0 L 115.40625 0 L 75.453125 -64.234375 Z M 56.5625 -64.234375 "/></g></g></g></svg>