<svg xmlns="http://www.w3.org/2000/svg" xmlns:xlink="http://www.w3.org/1999/xlink" width="500" zoomAndPan="magnify" viewBox="0 0 375 374.999991" height="500" preserveAspectRatio="xMidYMid meet" version="1.0"><defs><g/></defs><rect x="-37.5" width="450" fill="#ffffff" y="-37.499999" height="449.999989" fill-opacity="1"/><rect x="-37.5" width="450" fill="#120319" y="-37.499999" height="449.999989" fill-opacity="1"/><g fill="#00e5ff" fill-opacity="1"><g transform="translate(111.95284, 277.845023)"><g><path d="M 29.996094 -15 L 31.664062 -15 C 33.605469 -15 36.941406 -15 38.328125 -16.941406 C 39.164062 -17.777344 39.996094 -18.886719 39.71875 -19.996094 C 39.996094 -24.71875 33.605469 -24.996094 30.273438 -24.996094 L 29.441406 -24.996094 C 26.386719 -24.996094 23.332031 -25.273438 20.277344 -25.550781 L 20.277344 -56.660156 C 20.277344 -89.710938 18.332031 -113.320312 19.164062 -143.871094 C 19.441406 -156.925781 20.277344 -170.8125 20.277344 -183.867188 L 20.277344 -190.253906 C 23.332031 -190.535156 26.386719 -190.8125 29.441406 -190.8125 L 30.273438 -190.8125 C 33.605469 -190.8125 39.996094 -191.089844 39.71875 -195.8125 C 39.996094 -196.921875 39.164062 -198.03125 38.328125 -198.867188 C 36.941406 -200.808594 33.605469 -200.808594 31.664062 -200.808594 L 29.996094 -200.808594 C 26.386719 -200.808594 23.332031 -200.808594 19.996094 -200.53125 L 17.777344 -200.53125 L 16.664062 -200.808594 L 14.71875 -200.808594 C 12.222656 -200.808594 8.609375 -199.421875 8.886719 -196.921875 C 8.886719 -191.644531 8.332031 -189.421875 8.332031 -168.589844 L 8.332031 -33.605469 C 8.332031 -29.441406 8.609375 -25.550781 8.886719 -21.664062 C 8.886719 -20.554688 9.164062 -17.777344 10.832031 -16.386719 C 11.664062 -15.832031 12.777344 -15.277344 14.441406 -15.277344 L 15.277344 -15.277344 C 18.332031 -15.554688 15.832031 -15.277344 19.996094 -15.277344 C 23.332031 -15 26.386719 -15 29.996094 -15 Z M 29.996094 -15 "/></g></g></g><g fill="#00e5ff" fill-opacity="1"><g transform="translate(160.00272, 277.845023)"><g/></g></g><g fill="#00e5ff" fill-opacity="1"><g transform="translate(198.887057, 277.845023)"><g><path d="M 12.5 16.664062 C 24.71875 16.664062 31.664062 7.222656 35.550781 -13.054688 C 40.550781 -38.050781 42.496094 -73.601562 41.382812 -107.488281 L 44.4375 -107.210938 C 47.496094 -106.65625 53.328125 -106.375 54.4375 -108.320312 C 56.382812 -111.375 56.105469 -113.042969 53.605469 -116.097656 C 51.105469 -119.152344 46.9375 -118.597656 40.828125 -118.320312 C 39.441406 -140.539062 36.664062 -161.09375 32.496094 -176.925781 C 30.550781 -184.699219 28.050781 -190.535156 24.164062 -195.253906 C 22.496094 -197.199219 20.277344 -198.867188 18.054688 -200.253906 C 13.054688 -202.753906 8.332031 -199.699219 8.332031 -195.8125 L 8.332031 -194.144531 C 8.332031 -191.089844 10 -190.8125 12.777344 -189.421875 C 14.441406 -188.589844 15.832031 -186.644531 16.386719 -184.980469 C 21.664062 -170.535156 24.71875 -158.871094 26.664062 -148.039062 C 32.21875 -112.488281 30.550781 -43.605469 21.941406 -9.441406 L 21.109375 -7.5 C 19.441406 -1.390625 18.054688 3.332031 14.164062 5 C 11.109375 6.109375 8.609375 7.777344 8.609375 10.832031 L 8.609375 11.664062 C 8.609375 15.277344 11.664062 16.664062 12.5 16.664062 Z M 12.5 16.664062 "/></g></g></g></svg>