<?xml version="1.0" encoding="utf-8" ?>
<svg xmlns="http://www.w3.org/2000/svg" xmlns:xlink="http://www.w3.org/1999/xlink" width="1501" height="1262">
	<path fill="#0D79C1" transform="scale(2.75413 2.75546)" d="M40.5368 180.555C40.1164 169.103 40.1897 157.653 40.1823 146.196C40.1761 136.659 40.0426 127.099 40.2429 117.566Q40.2973 115.701 40.4419 113.841Q40.5864 111.981 40.8209 110.13Q41.0553 108.279 41.3791 106.441Q41.7029 104.604 42.1152 102.784Q42.5275 100.964 43.0274 99.1668Q43.5274 97.3693 44.1137 95.598Q44.7 93.8268 45.3714 92.086Q46.0428 90.3452 46.7977 88.639Q47.5525 86.9327 48.3891 85.265Q49.2256 83.5973 50.1419 81.972Q51.0582 80.3467 52.0521 78.7677Q53.046 77.1887 54.1152 75.6597Q55.1843 74.1306 56.3262 72.6551Q57.4681 71.1796 58.6801 69.7612Q59.8921 68.3427 61.1713 66.9845Q62.4505 65.6263 63.794 64.3317Q65.946 62.2451 68.2646 60.3453Q70.5831 58.4456 73.0521 56.7459Q75.5212 55.0463 78.1234 53.5586Q80.7256 52.0709 83.4429 50.8056C101.165 42.5707 116.282 43.8357 135.278 43.8299C147.905 43.8262 160.566 43.6347 173.188 43.9302C175.397 44.2013 177.516 45.5259 179.659 46.198C183.227 47.3163 186.734 48.3151 190.181 49.7947C200.867 54.3817 210.388 62.1788 217.504 71.3131C235.676 94.6387 232.848 117.829 232.832 145.464C232.826 156.499 233.559 168.297 232.164 179.222C229.834 197.479 220.025 215.986 205.345 227.267C202.675 229.319 199.159 232.229 195.973 233.186C193.251 225.702 186.769 208.052 182.377 202.326Q181.519 201.197 180.53 200.181Q179.542 199.165 178.437 198.276Q177.332 197.387 176.128 196.638Q174.924 195.89 173.638 195.293Q173.111 195.052 172.572 194.836Q172.034 194.621 171.486 194.433Q170.937 194.245 170.38 194.084Q169.823 193.923 169.259 193.79Q168.695 193.657 168.124 193.551Q167.554 193.446 166.98 193.369Q166.405 193.292 165.827 193.244Q165.249 193.196 164.67 193.176Q164.09 193.156 163.511 193.165Q162.931 193.174 162.352 193.211Q161.774 193.248 161.198 193.314Q160.622 193.38 160.05 193.475Q159.478 193.569 158.911 193.691Q158.344 193.814 157.784 193.964Q157.224 194.115 156.672 194.292Q156.12 194.47 155.578 194.675C149.084 197.133 144.629 201.8 141.849 208.081C136.924 219.212 133.517 231.166 127.87 241.972C126.221 247.227 124.071 252.35 122.029 257.462L114.485 276.295L95.7574 323.016L68.6104 392.183Q65.6932 399.684 62.8742 407.222C61.8968 409.88 61.0509 412.641 59.9659 415.253C48.6011 405.162 41.4178 385.846 40.5442 370.967C40.289 366.62 40.4216 362.219 40.4232 357.864L40.4367 336.026C40.4469 325.142 39.8204 312.802 40.9469 302.063C40.5879 296.571 40.6632 291.052 40.6292 285.552L40.5445 260.737L40.5368 180.555Z"/>
	<path fill="#EE4633" transform="scale(2.75413 2.75546)" d="M105.94 241.866C113.086 241.511 120.767 240.91 127.87 241.972C126.221 247.227 124.071 252.35 122.029 257.462L114.485 276.295L95.7574 323.016L68.6104 392.183Q65.6932 399.684 62.8742 407.222C61.8968 409.88 61.0509 412.641 59.9659 415.253C48.6011 405.162 41.4178 385.846 40.5442 370.967C40.289 366.62 40.4216 362.219 40.4232 357.864L40.4367 336.026C40.4469 325.142 39.8204 312.802 40.9469 302.063C42.627 298.815 43.31 295.046 44.414 291.574C46.4338 285.222 49.6507 278.813 53.5176 273.385C65.7862 256.163 85.2781 245.318 105.94 241.866Z"/>
	<path fill="#057D4A" transform="scale(2.75413 2.75546)" d="M40.5368 180.555C41.0654 185.06 42.3956 187.364 44.0523 191.514C45.4996 195.14 46.8647 198.774 48.6961 202.231C52.9104 210.187 59.6604 218.389 66.7112 223.962C76.3702 231.597 87.6042 236.515 99.2962 240.083C101.356 240.712 103.786 241.754 105.94 241.866C85.2781 245.318 65.7862 256.163 53.5176 273.385C49.6507 278.813 46.4338 285.222 44.414 291.574C43.31 295.046 42.627 298.815 40.9469 302.063C40.5879 296.571 40.6632 291.052 40.6292 285.552L40.5445 260.737L40.5368 180.555Z"/>
	<path fill="#EE4633" transform="scale(2.75413 2.75546)" d="M298.487 134.087Q298.698 131.737 299.02 129.4Q299.342 127.063 299.774 124.743Q300.207 122.424 300.748 120.128Q301.29 117.831 301.94 115.563Q302.59 113.295 303.346 111.061Q304.103 108.826 304.965 106.63Q305.826 104.433 306.791 102.28Q307.756 100.127 308.821 98.0222Q309.887 95.9173 311.051 93.8652Q312.215 91.813 313.475 89.8184Q314.735 87.8237 316.088 85.891Q317.441 83.9582 318.884 82.0917Q320.327 80.2253 321.857 78.4292Q323.387 76.6332 325 74.9117Q326.613 73.1902 328.306 71.547Q329.999 69.9038 331.768 68.3427Q333.537 66.7815 335.378 65.3059Q337.218 63.8303 339.127 62.4436Q341.036 61.0568 343.008 59.7621Q344.98 58.4673 347.011 57.2674Q349.043 56.0675 351.129 54.9652Q353.215 53.8629 355.35 52.8606Q357.486 51.8584 359.667 50.9584Q361.848 50.0584 364.069 49.2628Q366.29 48.4671 368.546 47.7776Q370.802 47.0881 373.088 46.5062Q375.375 45.9243 377.686 45.4513Q379.997 44.9784 382.329 44.6155Q384.66 44.2526 387.005 44.0005Q389.351 43.7484 391.706 43.6078Q394.061 43.4671 396.42 43.4381Q398.779 43.4092 401.137 43.492Q403.495 43.5748 405.846 43.7693Q408.197 43.9637 410.536 44.2693Q412.876 44.5749 415.198 44.9909Q417.52 45.407 419.82 45.9326Q422.12 46.4582 424.393 47.0922Q426.665 47.7261 428.905 48.467Q431.145 49.2079 433.347 50.0541Q435.549 50.9003 437.709 51.8498Q439.869 52.7994 441.981 53.8502Q444.093 54.9009 446.153 56.0506Q448.214 57.2003 450.217 58.4462Q452.22 59.6922 454.162 61.0317Q456.105 62.3712 457.981 63.8011Q459.858 65.2311 461.664 66.7484Q463.471 68.2656 465.204 69.8667Q466.936 71.4679 468.591 73.1493Q470.246 74.8307 471.82 76.5887Q473.393 78.3466 474.882 80.1771Q476.37 82.0076 477.77 83.9065Q479.17 85.8055 480.479 87.7686Q481.787 89.7318 483.001 91.7547Q484.216 93.7776 485.332 95.8558Q486.449 97.9339 487.466 100.063Q488.484 102.191 489.399 104.366Q490.314 106.54 491.125 108.756Q491.937 110.971 492.642 113.223Q493.347 115.474 493.945 117.756Q494.543 120.039 495.032 122.347Q495.521 124.655 495.901 126.983Q496.28 129.312 496.549 131.656Q496.817 134 496.974 136.354Q497.131 138.708 497.177 141.067Q497.223 143.426 497.156 145.784Q497.09 148.143 496.912 150.495Q496.734 152.848 496.445 155.189Q496.156 157.531 495.756 159.856Q495.357 162.181 494.847 164.485Q494.338 166.788 493.72 169.065Q493.102 171.342 492.377 173.587Q491.652 175.833 490.821 178.041Q489.991 180.249 489.056 182.415Q488.122 184.582 487.086 186.701Q486.05 188.821 484.915 190.889Q483.78 192.958 482.548 194.97Q481.317 196.982 479.991 198.934Q478.665 200.885 477.248 202.772Q475.832 204.658 474.327 206.476Q472.823 208.293 471.234 210.037Q469.645 211.781 467.976 213.448Q466.306 215.115 464.559 216.701Q462.812 218.286 460.993 219.788Q459.173 221.289 457.284 222.703Q455.395 224.116 453.441 225.438Q451.487 226.761 449.473 227.989Q447.459 229.217 445.389 230.349Q443.318 231.48 441.197 232.513Q439.076 233.545 436.908 234.475Q434.74 235.406 432.53 236.233Q430.32 237.06 428.074 237.781Q425.828 238.502 423.55 239.116Q421.272 239.73 418.968 240.235Q416.663 240.741 414.337 241.136Q412.012 241.532 409.67 241.817Q407.328 242.102 404.975 242.276Q397.57 242.823 390.165 242.265Q388.03 242.104 385.903 241.852Q383.777 241.599 381.663 241.255Q379.55 240.912 377.453 240.477Q375.356 240.043 373.28 239.519Q371.203 238.995 369.152 238.382Q367.1 237.769 365.076 237.069Q363.053 236.368 361.061 235.581Q359.07 234.795 357.114 233.923Q355.158 233.051 353.241 232.096Q351.325 231.141 349.451 230.104Q347.577 229.068 345.75 227.951Q343.922 226.835 342.144 225.641Q340.367 224.448 338.642 223.178Q336.917 221.909 335.249 220.567Q333.58 219.225 331.971 217.812Q330.361 216.4 328.814 214.919Q327.267 213.439 325.785 211.893Q324.303 210.347 322.889 208.739Q321.474 207.131 320.131 205.464Q318.787 203.797 317.516 202.073Q316.245 200.35 315.05 198.573Q313.854 196.796 312.736 194.97Q311.618 193.144 310.579 191.271Q309.541 189.398 308.584 187.482Q307.627 185.567 306.753 183.612Q305.879 181.657 305.09 179.666Q304.302 177.675 303.599 175.652Q302.896 173.629 302.282 171.578Q301.667 169.527 301.14 167.451Q300.614 165.375 300.178 163.278Q299.741 161.182 299.396 159.069Q299.05 156.955 298.795 154.829Q298.177 149.666 298.099 144.466Q298.022 139.266 298.487 134.087Z"/>
	<path fill="#057D4A" transform="scale(2.75413 2.75546)" d="M390.165 242.265Q397.57 242.823 404.975 242.276C412.382 243.269 419.656 244.398 426.836 246.524Q428.68 247.09 430.501 247.727Q432.322 248.365 434.117 249.073Q435.911 249.781 437.677 250.558Q439.443 251.335 441.177 252.18Q442.911 253.026 444.611 253.938Q446.31 254.85 447.973 255.828Q449.636 256.806 451.26 257.848Q452.884 258.89 454.466 259.994Q456.048 261.098 457.585 262.264Q459.123 263.429 460.614 264.653Q462.105 265.877 463.547 267.158Q464.99 268.439 466.381 269.776Q467.772 271.112 469.111 272.502Q470.449 273.891 471.732 275.332Q473.015 276.773 474.241 278.262Q475.467 279.752 476.634 281.288C493.034 302.805 499.357 330.162 495.682 356.857C492.058 383.181 477.959 406.211 456.857 422.169C435.663 438.199 409.331 444.333 383.138 440.635C357.278 436.983 332.898 421.973 317.298 401.131Q315.85 399.166 314.498 397.133Q313.146 395.101 311.893 393.005Q310.641 390.909 309.491 388.756Q308.342 386.602 307.297 384.396Q306.253 382.189 305.316 379.935Q304.379 377.681 303.552 375.384Q302.725 373.087 302.009 370.753Q301.294 368.419 300.692 366.053C299.625 361.975 299.159 357.678 297.95 353.656C297.905 353.408 297.851 353.161 297.823 352.911C297.624 351.176 297.258 333.31 297.652 332.534C297.76 332.322 297.955 332.168 298.106 331.985C299.127 329.693 299.907 322.288 300.616 319.257C303.443 307.169 308.902 295.037 315.898 284.784C328.347 266.541 348.013 252.851 369.099 246.644C376.019 244.608 383.094 243.593 390.165 242.265Z"/>
	<path fill="#09563D" transform="scale(2.75413 2.75546)" d="M173.188 43.9302C200.312 43.7079 222.538 40.9446 247.636 53.6418Q250.759 55.2052 253.75 57.0069Q256.742 58.8086 259.584 60.8378Q262.427 62.8669 265.102 65.1112Q267.778 67.3554 270.271 69.8012C289.992 89.1595 294.937 107.524 298.487 134.087Q298.022 139.266 298.099 144.466Q298.177 149.666 298.795 154.829C295.025 182.307 285.904 204.858 263.22 222.137C253.166 229.795 240.68 236.19 228.25 238.766C222.386 239.981 216.395 240.39 210.463 241.113C216.96 242.176 223.395 242.62 229.819 244.204C250.122 249.208 268.581 262.37 280.726 279.276Q282.283 281.447 283.705 283.708Q285.126 285.97 286.407 288.314Q287.688 290.658 288.824 293.076Q289.96 295.494 290.946 297.977Q291.932 300.46 292.765 302.998Q293.598 305.536 294.274 308.121Q294.951 310.705 295.469 313.326Q295.986 315.947 296.343 318.594C296.65 320.73 297.662 330.801 298.106 331.985C297.955 332.168 297.76 332.322 297.652 332.534C297.258 333.31 297.624 351.176 297.823 352.911C297.851 353.161 297.905 353.408 297.95 353.656C297.222 354.92 296.526 364.57 296.234 366.63C293.5 385.891 284.048 403.028 270.013 416.295C268.832 413.883 267.933 411.222 266.934 408.725L260.132 391.565L236.364 332.245L208.787 264.252C204.561 253.915 199.761 243.688 195.973 233.186C199.159 232.229 202.675 229.319 205.345 227.267C220.025 215.986 229.834 197.479 232.164 179.222C233.559 168.297 232.826 156.499 232.832 145.464C232.848 117.829 235.676 94.6387 217.504 71.3131C210.388 62.1788 200.867 54.3817 190.181 49.7947C186.734 48.3151 183.227 47.3163 179.659 46.198C177.516 45.5259 175.397 44.2013 173.188 43.9302Z"/>
	<path fill="#EE4633" transform="scale(2.75413 2.75546)" d="M90.4848 437.385C92.2248 436.358 94.6396 435.241 95.9121 433.676C100.295 428.285 102.548 419.996 105.032 413.51C106.669 409.235 117.001 381.349 119.239 379.698C119.548 379.47 119.963 379.327 120.342 379.282C123.697 378.878 127.561 379.243 130.96 379.249L153.745 379.27L190.59 379.239C195.587 379.229 204.67 378.631 209.029 379.593C211.601 381.814 219.575 403.022 221.381 407.951C223.363 413.442 229.488 429.773 232.57 433.523C233.489 434.64 234.65 435.258 235.93 435.862Q237.16 436.438 238.405 436.983C225.791 441.543 205.193 440.263 191.598 440.01Q182.1 439.876 172.601 439.873Q152.817 440.345 133.027 440.184C118.626 440.186 104.61 440.774 90.4848 437.385Z"/>
	<path fill="#09563D" transform="scale(2.75413 2.75546)" d="M221.381 407.951C223.363 413.442 229.488 429.773 232.57 433.523C233.489 434.64 234.65 435.258 235.93 435.862Q237.16 436.438 238.405 436.983C225.791 441.543 205.193 440.263 191.598 440.01Q182.1 439.876 172.601 439.873C176.298 438.889 180.084 438.211 183.746 437.104C196.496 433.25 208.112 426.172 216.336 415.542C218.207 413.122 219.676 410.478 221.381 407.951Z"/>
	<path fill="#EE4633" transform="scale(2.75413 2.75546)" d="M163.856 263.852L164.588 263.982C165.464 264.696 165.86 265.779 166.295 266.797C167.418 269.424 168.315 272.192 169.337 274.864L176.372 293.061C182.387 308.439 188.665 323.74 194.398 339.225C191.17 339.034 187.854 339.221 184.615 339.224L164.857 339.231L145.577 339.179C141.912 339.164 137.939 339.454 134.336 338.823C134.116 338.427 134.06 338.425 134.076 337.932C134.188 334.452 159.251 272.421 162.057 266.369C162.525 265.36 163.03 264.612 163.856 263.852Z"/>
</svg>
